<svg width="400" height="400" viewBox="0 0 400 400" fill="none" xmlns="http://www.w3.org/2000/svg">
<rect width="400" height="400" rx="200" fill="#0035B9"/>
<path d="M214.313 249.581L212.973 153.139H276.375V176.803H241.995V191.537H271.464V210.29H241.995V227.256H277.268V249.581H214.313Z" fill="white"/>
<path d="M289.77 223.238V153.139H319.685V217.88C319.685 222.101 322.634 224.423 326.382 226.363C330.563 228.528 334.256 228.528 338.437 226.363C342.186 224.423 345.135 222.101 345.135 217.88V153.139H374.603C374.603 153.139 375.496 199.127 374.603 224.577C374.317 232.723 369.66 236.882 363.607 242.288L363.441 242.437C358.147 247.165 354.149 248.825 347.367 250.92C336.538 254.266 329.185 254.23 318.345 250.92C310.732 248.596 306.235 246.603 300.485 241.098C294.611 235.472 289.77 231.372 289.77 223.238Z" fill="white"/>
<path fill-rule="evenodd" clip-rule="evenodd" d="M107.601 104.913C109.284 103.953 110.28 104.025 110.28 104.025C110.28 104.025 111.873 103.768 113.936 104.913C118.305 107.338 126.936 112.122 137.507 117.982C154.213 127.242 175.766 139.189 193.006 148.757C193.006 148.757 194.266 149.612 195.113 150.46C196.006 151.353 196.006 153.139 196.006 153.139L197.324 244.534C197.324 244.534 197.244 245.519 196.899 246.009C196.667 246.34 196.132 246.704 196.132 246.704L112.066 294.677C112.066 294.677 111.294 295.123 110.726 295.123C110.28 295.123 109.387 294.677 109.387 294.677L27.4342 249.581C27.4342 249.581 26.4373 249.003 25.893 248.241C25.176 247.238 25 245.116 25 245.116V155.371C25 155.371 25.0001 154.032 25.893 152.692C26.7859 151.353 26.9639 151.126 27.9268 150.577C42.9481 142.008 54.9537 135.105 66.8828 128.246C79.4061 121.045 91.8452 113.893 107.601 104.913ZM165.645 167.426L137.962 183.054C137.962 183.054 133.149 177.233 129.479 174.124C125.937 171.123 119.21 167.873 119.21 167.873C117.627 168.049 116.095 168.071 114.527 168.095C112.114 168.13 109.614 168.168 106.708 168.766C103.476 169.431 100.916 170.434 98.46 171.395C97.6327 171.719 96.8173 172.038 95.9922 172.338C92.7179 173.528 87.3434 178.975 83.9369 184.84C80.3882 190.949 78.5814 195.201 79.0255 202.253C79.4245 208.587 81.247 212.194 84.8299 217.433C88.5247 222.836 91.276 226.112 97.3317 228.596C102.677 230.788 106.291 231.469 112.066 231.275C115.188 231.169 117.351 230.424 119.903 229.546C120.796 229.238 121.736 228.914 122.782 228.596C130.655 226.197 139.748 216.094 139.748 216.094L165.645 232.168C165.645 232.168 161.913 237.626 159.394 241.098C155.762 246.103 148.232 251.813 148.232 251.813C148.232 251.813 144.66 254.492 138.409 257.171C133.743 259.171 131.536 259.647 128.324 260.34C127.233 260.576 126.026 260.836 124.568 261.19C124.568 261.19 114.745 262.38 110.726 262.976C106.708 263.571 97.9022 262.005 90.1878 259.404C85.675 257.882 83.1835 256.814 79.0255 254.492C73.3346 251.314 70.4818 249.028 66.0772 244.223C65.22 243.288 64.4243 242.441 63.677 241.645C60.1425 237.882 57.6888 235.27 54.915 229.935C51.4012 223.178 49.647 218.735 48.6641 211.183C47.809 204.612 47.809 200.786 48.6641 194.216C49.647 186.663 50.1905 182.49 53.129 175.463C55.8994 168.838 58.1357 164.641 62.5053 158.943C67.3081 152.68 71.263 149.972 77.5043 145.698C77.9967 145.361 78.5032 145.014 79.0255 144.655C86.9321 139.22 92.7444 137.974 102.243 136.618C111.924 135.237 118.701 135.847 128.14 138.404C137.186 140.855 141.191 143.12 148.678 148.757C156.549 154.683 165.645 167.426 165.645 167.426Z" fill="white"/>
<path d="M213.832 258.843C213.501 258.843 213.207 258.909 212.95 259.039C212.696 259.166 212.482 259.35 212.307 259.592C212.136 259.834 212.006 260.126 211.916 260.469C211.827 260.812 211.782 261.197 211.782 261.625C211.782 262.203 211.853 262.696 211.994 263.106C212.14 263.512 212.363 263.823 212.665 264.039C212.966 264.251 213.356 264.357 213.832 264.357C214.164 264.357 214.495 264.32 214.827 264.245C215.162 264.171 215.525 264.065 215.916 263.927V265.38C215.555 265.529 215.199 265.635 214.849 265.698C214.499 265.765 214.106 265.799 213.67 265.799C212.829 265.799 212.136 265.625 211.592 265.279C211.052 264.929 210.652 264.441 210.391 263.815C210.13 263.186 210 262.452 210 261.614C210 260.996 210.084 260.43 210.251 259.916C210.419 259.402 210.665 258.957 210.989 258.581C211.313 258.205 211.713 257.914 212.19 257.709C212.667 257.505 213.214 257.402 213.832 257.402C214.238 257.402 214.644 257.454 215.05 257.559C215.46 257.659 215.851 257.799 216.223 257.978L215.665 259.385C215.359 259.24 215.052 259.113 214.743 259.005C214.434 258.897 214.13 258.843 213.832 258.843Z" fill="white"/>
<path d="M222.363 265.687H217.659V257.519H222.363V258.938H219.391V260.732H222.156V262.151H219.391V264.257H222.363V265.687Z" fill="white"/>
<path d="M231.318 265.687H229.117L225.564 259.508H225.513C225.528 259.765 225.541 260.024 225.553 260.285C225.564 260.545 225.575 260.806 225.586 261.067C225.597 261.324 225.608 261.583 225.62 261.843V265.687H224.072V257.519H226.256L229.804 263.637H229.843C229.835 263.383 229.826 263.132 229.815 262.882C229.804 262.633 229.793 262.383 229.781 262.134C229.774 261.884 229.767 261.635 229.759 261.385V257.519H231.318V265.687Z" fill="white"/>
<path d="M236.53 265.687H234.798V258.961H232.58V257.519H238.748V258.961H236.53V265.687Z" fill="white"/>
<path d="M242.384 257.519C243.126 257.519 243.736 257.609 244.217 257.788C244.701 257.966 245.06 258.236 245.295 258.598C245.53 258.959 245.647 259.415 245.647 259.966C245.647 260.339 245.576 260.665 245.435 260.944C245.293 261.223 245.107 261.46 244.876 261.653C244.645 261.847 244.395 262.005 244.127 262.128L246.529 265.687H244.608L242.658 262.553H241.736V265.687H240.005V257.519H242.384ZM242.261 258.938H241.736V261.145H242.295C242.869 261.145 243.278 261.05 243.524 260.86C243.774 260.666 243.898 260.383 243.898 260.011C243.898 259.624 243.764 259.348 243.496 259.184C243.232 259.02 242.82 258.938 242.261 258.938Z" fill="white"/>
<path d="M254.971 261.592C254.971 262.221 254.892 262.795 254.736 263.313C254.579 263.827 254.341 264.27 254.021 264.642C253.704 265.015 253.302 265.301 252.814 265.502C252.326 265.7 251.749 265.799 251.082 265.799C250.416 265.799 249.839 265.7 249.351 265.502C248.863 265.301 248.459 265.015 248.138 264.642C247.822 264.27 247.585 263.825 247.429 263.307C247.272 262.789 247.194 262.214 247.194 261.581C247.194 260.735 247.332 260 247.608 259.374C247.887 258.745 248.315 258.257 248.893 257.911C249.47 257.564 250.203 257.391 251.094 257.391C251.98 257.391 252.708 257.564 253.278 257.911C253.851 258.257 254.276 258.745 254.552 259.374C254.831 260.004 254.971 260.743 254.971 261.592ZM249.01 261.592C249.01 262.162 249.081 262.653 249.222 263.067C249.367 263.476 249.593 263.793 249.898 264.016C250.203 264.236 250.598 264.346 251.082 264.346C251.574 264.346 251.973 264.236 252.278 264.016C252.583 263.793 252.805 263.476 252.943 263.067C253.084 262.653 253.155 262.162 253.155 261.592C253.155 260.735 252.995 260.061 252.675 259.57C252.354 259.078 251.827 258.832 251.094 258.832C250.606 258.832 250.207 258.944 249.898 259.167C249.593 259.387 249.367 259.704 249.222 260.117C249.081 260.527 249.01 261.018 249.01 261.592Z" fill="white"/>
<path d="M266.411 261.525C266.411 262.445 266.235 263.214 265.881 263.832C265.531 264.447 265.022 264.91 264.356 265.223C263.689 265.532 262.886 265.687 261.948 265.687H259.635V257.519H262.199C263.056 257.519 263.799 257.672 264.428 257.978C265.058 258.279 265.546 258.728 265.892 259.324C266.238 259.916 266.411 260.65 266.411 261.525ZM264.613 261.57C264.613 260.966 264.523 260.471 264.345 260.084C264.169 259.693 263.909 259.404 263.562 259.218C263.22 259.032 262.795 258.938 262.289 258.938H261.367V264.257H262.11C262.955 264.257 263.583 264.031 263.993 263.581C264.406 263.13 264.613 262.46 264.613 261.57Z" fill="white"/>
<path d="M272.808 265.687H268.104V257.519H272.808V258.938H269.836V260.732H272.601V262.151H269.836V264.257H272.808V265.687Z" fill="white"/>
<path d="M282.193 265.687H277.489V257.519H282.193V258.938H279.221V260.732H281.986V262.151H279.221V264.257H282.193V265.687Z" fill="white"/>
<path d="M288.724 263.419C288.724 263.903 288.606 264.324 288.372 264.681C288.137 265.039 287.794 265.314 287.344 265.508C286.897 265.702 286.353 265.799 285.713 265.799C285.429 265.799 285.152 265.78 284.88 265.743C284.612 265.705 284.353 265.651 284.104 265.581C283.858 265.506 283.623 265.415 283.4 265.307V263.698C283.787 263.869 284.189 264.024 284.606 264.162C285.024 264.299 285.437 264.368 285.847 264.368C286.13 264.368 286.357 264.331 286.528 264.257C286.703 264.182 286.83 264.08 286.908 263.949C286.986 263.819 287.025 263.67 287.025 263.503C287.025 263.298 286.956 263.123 286.819 262.977C286.681 262.832 286.491 262.696 286.249 262.57C286.01 262.443 285.74 262.307 285.439 262.162C285.249 262.072 285.042 261.964 284.819 261.838C284.595 261.707 284.383 261.549 284.182 261.363C283.981 261.177 283.815 260.951 283.685 260.687C283.558 260.419 283.495 260.099 283.495 259.726C283.495 259.238 283.606 258.821 283.83 258.475C284.053 258.128 284.372 257.864 284.785 257.681C285.202 257.495 285.694 257.402 286.26 257.402C286.685 257.402 287.089 257.452 287.472 257.553C287.86 257.65 288.264 257.791 288.684 257.978L288.126 259.324C287.75 259.171 287.413 259.054 287.115 258.972C286.817 258.886 286.513 258.843 286.204 258.843C285.988 258.843 285.804 258.879 285.651 258.95C285.498 259.017 285.383 259.113 285.305 259.24C285.227 259.363 285.187 259.506 285.187 259.67C285.187 259.864 285.243 260.028 285.355 260.162C285.47 260.292 285.642 260.419 285.869 260.542C286.1 260.665 286.387 260.808 286.729 260.972C287.146 261.169 287.502 261.376 287.796 261.592C288.094 261.804 288.323 262.056 288.483 262.346C288.644 262.633 288.724 262.99 288.724 263.419Z" fill="white"/>
<path d="M292.813 257.519C293.867 257.519 294.636 257.747 295.12 258.201C295.604 258.652 295.846 259.274 295.846 260.067C295.846 260.424 295.792 260.767 295.684 261.095C295.576 261.419 295.399 261.707 295.154 261.961C294.911 262.214 294.587 262.415 294.182 262.564C293.776 262.709 293.275 262.782 292.679 262.782H291.936V265.687H290.204V257.519H292.813ZM292.723 258.938H291.936V261.363H292.506C292.83 261.363 293.111 261.32 293.349 261.234C293.587 261.149 293.772 261.015 293.902 260.832C294.033 260.65 294.098 260.415 294.098 260.128C294.098 259.726 293.986 259.428 293.763 259.234C293.539 259.037 293.193 258.938 292.723 258.938Z" fill="white"/>
<path d="M302.092 265.687H297.388V257.519H302.092V258.938H299.12V260.732H301.885V262.151H299.12V264.257H302.092V265.687Z" fill="white"/>
<path d="M307.27 258.843C306.939 258.843 306.645 258.909 306.388 259.039C306.135 259.166 305.92 259.35 305.745 259.592C305.574 259.834 305.444 260.126 305.354 260.469C305.265 260.812 305.22 261.197 305.22 261.625C305.22 262.203 305.291 262.696 305.433 263.106C305.578 263.512 305.801 263.823 306.103 264.039C306.405 264.251 306.794 264.357 307.27 264.357C307.602 264.357 307.933 264.32 308.265 264.245C308.6 264.171 308.963 264.065 309.354 263.927V265.38C308.993 265.529 308.637 265.635 308.287 265.698C307.937 265.765 307.544 265.799 307.108 265.799C306.267 265.799 305.574 265.625 305.03 265.279C304.49 264.929 304.09 264.441 303.829 263.815C303.569 263.186 303.438 262.452 303.438 261.614C303.438 260.996 303.522 260.43 303.69 259.916C303.857 259.402 304.103 258.957 304.427 258.581C304.751 258.205 305.151 257.914 305.628 257.709C306.105 257.505 306.652 257.402 307.27 257.402C307.676 257.402 308.082 257.454 308.488 257.559C308.898 257.659 309.289 257.799 309.661 257.978L309.103 259.385C308.797 259.24 308.49 259.113 308.181 259.005C307.872 258.897 307.568 258.843 307.27 258.843Z" fill="white"/>
<path d="M311.097 265.687V257.519H312.829V265.687H311.097Z" fill="white"/>
<path d="M319.885 265.687L319.292 263.743H316.315L315.723 265.687H313.857L316.739 257.486H318.857L321.75 265.687H319.885ZM318.879 262.29L318.287 260.391C318.25 260.264 318.199 260.102 318.136 259.905C318.076 259.704 318.015 259.501 317.952 259.296C317.892 259.087 317.844 258.907 317.806 258.754C317.769 258.907 317.717 259.097 317.65 259.324C317.587 259.547 317.525 259.76 317.466 259.961C317.406 260.162 317.363 260.305 317.337 260.391L316.751 262.29H318.879Z" fill="white"/>
<path d="M322.784 265.687V257.519H324.516V264.257H327.828V265.687H322.784Z" fill="white"/>
<path d="M329.253 265.687V257.519H330.985V265.687H329.253Z" fill="white"/>
<path d="M338.364 265.687H332.286V264.564L336.202 258.95H332.393V257.519H338.258V258.637L334.348 264.257H338.364V265.687Z" fill="white"/>
<path d="M344.666 265.687L344.074 263.743H341.096L340.504 265.687H338.638L341.521 257.486H343.638L346.532 265.687H344.666ZM343.66 262.29L343.068 260.391C343.031 260.264 342.981 260.102 342.917 259.905C342.858 259.704 342.796 259.501 342.733 259.296C342.673 259.087 342.625 258.907 342.588 258.754C342.55 258.907 342.498 259.097 342.431 259.324C342.368 259.547 342.307 259.76 342.247 259.961C342.187 260.162 342.145 260.305 342.118 260.391L341.532 262.29H343.66Z" fill="white"/>
<path d="M351.034 258.843C350.703 258.843 350.409 258.909 350.152 259.039C349.898 259.166 349.684 259.35 349.509 259.592C349.338 259.834 349.208 260.126 349.118 260.469C349.029 260.812 348.984 261.197 348.984 261.625C348.984 262.203 349.055 262.696 349.196 263.106C349.342 263.512 349.565 263.823 349.867 264.039C350.168 264.251 350.558 264.357 351.034 264.357C351.366 264.357 351.697 264.32 352.029 264.245C352.364 264.171 352.727 264.065 353.118 263.927V265.38C352.757 265.529 352.401 265.635 352.051 265.698C351.701 265.765 351.308 265.799 350.872 265.799C350.031 265.799 349.338 265.625 348.794 265.279C348.254 264.929 347.854 264.441 347.593 263.815C347.332 263.186 347.202 262.452 347.202 261.614C347.202 260.996 347.286 260.43 347.453 259.916C347.621 259.402 347.867 258.957 348.191 258.581C348.515 258.205 348.915 257.914 349.392 257.709C349.869 257.505 350.416 257.402 351.034 257.402C351.44 257.402 351.846 257.454 352.252 257.559C352.662 257.659 353.053 257.799 353.425 257.978L352.867 259.385C352.561 259.24 352.254 259.113 351.945 259.005C351.636 258.897 351.332 258.843 351.034 258.843Z" fill="white"/>
<path d="M354.861 265.687V257.519H356.593V265.687H354.861Z" fill="white"/>
<path d="M366.062 261.592C366.062 262.221 365.984 262.795 365.827 263.313C365.671 263.827 365.432 264.27 365.112 264.642C364.796 265.015 364.393 265.301 363.905 265.502C363.418 265.7 362.84 265.799 362.174 265.799C361.507 265.799 360.93 265.7 360.442 265.502C359.954 265.301 359.55 265.015 359.23 264.642C358.913 264.27 358.677 263.825 358.52 263.307C358.364 262.789 358.285 262.214 358.285 261.581C358.285 260.735 358.423 260 358.699 259.374C358.978 258.745 359.406 258.257 359.984 257.911C360.561 257.564 361.295 257.391 362.185 257.391C363.071 257.391 363.799 257.564 364.369 257.911C364.943 258.257 365.367 258.745 365.643 259.374C365.922 260.004 366.062 260.743 366.062 261.592ZM360.101 261.592C360.101 262.162 360.172 262.653 360.313 263.067C360.459 263.476 360.684 263.793 360.989 264.016C361.295 264.236 361.689 264.346 362.174 264.346C362.665 264.346 363.064 264.236 363.369 264.016C363.674 263.793 363.896 263.476 364.034 263.067C364.175 262.653 364.246 262.162 364.246 261.592C364.246 260.735 364.086 260.061 363.766 259.57C363.445 259.078 362.918 258.832 362.185 258.832C361.697 258.832 361.298 258.944 360.989 259.167C360.684 259.387 360.459 259.704 360.313 260.117C360.172 260.527 360.101 261.018 360.101 261.592ZM364.369 255V255.117C364.261 255.222 364.12 255.35 363.945 255.503C363.769 255.655 363.581 255.816 363.38 255.983C363.179 256.147 362.982 256.305 362.788 256.458C362.594 256.607 362.425 256.732 362.28 256.832H361.146V256.682C361.269 256.54 361.41 256.372 361.57 256.179C361.734 255.981 361.896 255.778 362.056 255.57C362.216 255.361 362.351 255.171 362.459 255H364.369Z" fill="white"/>
<path d="M375 265.687H372.799L369.246 259.508H369.196C369.211 259.765 369.224 260.024 369.235 260.285C369.246 260.545 369.257 260.806 369.268 261.067C369.28 261.324 369.291 261.583 369.302 261.843V265.687H367.754V257.519H369.939L373.486 263.637H373.525C373.518 263.383 373.508 263.132 373.497 262.882C373.486 262.633 373.475 262.383 373.464 262.134C373.456 261.884 373.449 261.635 373.441 261.385V257.519H375V265.687Z" fill="white"/>
</svg>
