<svg
    width="24"
    height="24"
    viewBox="0 0 24 24"
    fill="none"
    xmlns="http://www.w3.org/2000/svg"
>
    <path
        d="M5 10C6.65685 10 8 8.65685 8 7C8 5.34315 6.65685 4 5 4C3.34315 4 2 5.34315 2 7C2 8.65685 3.34315 10 5 10Z"
        stroke="#141B34"
        stroke-width="1.5"
    />
    <path
        opacity="0.4"
        d="M8 22C10.2091 22 12 20.2091 12 18C12 15.7909 10.2091 14 8 14C5.79086 14 4 15.7909 4 18C4 20.2091 5.79086 22 8 22Z"
        stroke="#141B34"
        stroke-width="1.5"
    />
    <path
        d="M17 12C19.7614 12 22 9.76142 22 7C22 4.23858 19.7614 2 17 2C14.2386 2 12 4.23858 12 7C12 9.76142 14.2386 12 17 12Z"
        stroke="#141B34"
        stroke-width="1.5"
    />
</svg>
