<svg
    width="24"
    height="24"
    viewBox="0 0 24 24"
    fill="none"
    xmlns="http://www.w3.org/2000/svg"
>
    <path
        d="M12 22C17.5228 22 22 17.5228 22 12C22 6.47715 17.5228 2 12 2C6.47715 2 2 6.47715 2 12C2 17.5228 6.47715 22 12 22Z"
        stroke="#141B34"
        stroke-width="1.5"
    />
    <path
        opacity="0.4"
        d="M16.5 10.2857H8.56622C7.91964 10.2857 7.59635 10.2857 7.51589 10.1093C7.43543 9.93296 7.66404 9.72538 8.12124 9.31022L9.56415 8M7.5 13.7143H15.4338C16.0804 13.7143 16.4037 13.7143 16.4841 13.8907C16.5646 14.067 16.336 14.2746 15.8788 14.6898L14.4358 16"
        stroke="#141B34"
        stroke-width="1.5"
        stroke-linecap="round"
        stroke-linejoin="round"
    />
</svg>
